<?xml version="1.0" standalone="no"?>
<!DOCTYPE svg PUBLIC "-//W3C//DTD SVG 20010904//EN"
 "http://www.w3.org/TR/2001/REC-SVG-20010904/DTD/svg10.dtd">
<svg version="1.0" xmlns="http://www.w3.org/2000/svg"
 width="1080.000000pt" height="1080.000000pt" viewBox="0 0 1080.000000 1080.000000"
 preserveAspectRatio="xMidYMid meet">

<g transform="translate(0.000000,1080.000000) scale(0.100000,-0.100000)"
fill="#000000" stroke="none">
<path d="M8810 10080 c-101 -14 -228 -54 -304 -97 -67 -37 -186 -142 -186
-164 0 -6 9 -24 21 -40 l21 -30 21 24 c68 74 177 135 292 163 139 33 365 28
495 -11 132 -39 322 -141 365 -195 60 -75 60 -75 94 -61 l31 13 -21 37 c-31
52 -114 136 -184 186 -186 133 -443 202 -645 175z"/>
<path d="M8376 9745 c-9 -26 -7 -32 5 -12 6 10 9 21 6 23 -2 3 -7 -2 -11 -11z"/>
<path d="M4825 8799 c-106 -16 -250 -69 -304 -112 -8 -7 -62 -12 -135 -12
-101 -1 -138 -6 -220 -29 -186 -52 -388 -164 -478 -265 -52 -59 -89 -139 -97
-210 l-6 -55 -49 -12 c-184 -47 -338 -209 -353 -371 -12 -127 54 -289 146
-364 l40 -32 -48 -53 c-56 -61 -88 -124 -102 -202 -27 -145 61 -332 181 -384
27 -12 79 -22 128 -25 79 -6 83 -7 78 -27 -3 -12 -20 -77 -37 -146 -17 -69
-33 -127 -35 -129 -1 -2 -15 6 -31 17 -79 56 -179 68 -248 29 -86 -48 -155
-197 -163 -352 -9 -192 67 -308 246 -375 56 -21 121 -23 164 -5 11 4 19 2 22
-6 2 -8 16 -63 30 -124 28 -112 103 -286 163 -373 67 -98 223 -231 380 -325
163 -98 395 -185 668 -252 216 -52 224 -55 241 -86 21 -41 18 -97 -16 -293
-36 -209 -36 -210 -64 -201 -11 3 -97 9 -191 12 -146 4 -198 1 -370 -21 -378
-50 -541 -94 -808 -220 -123 -58 -404 -214 -453 -252 -46 -34 -178 -195 -247
-299 -79 -120 -269 -502 -321 -646 -9 -25 -25 -55 -36 -67 -15 -15 -19 -29
-14 -47 7 -27 48 -65 71 -65 7 0 30 -10 51 -23 59 -37 304 -137 432 -177 36
-11 79 -24 95 -29 17 -6 41 -12 55 -15 14 -3 66 -17 115 -31 85 -24 168 -45
260 -65 75 -17 300 -60 330 -64 17 -2 37 -6 45 -9 34 -14 502 -71 810 -99 215
-19 311 -22 785 -23 372 0 584 4 680 13 77 7 158 15 180 17 182 17 562 71 660
94 22 6 64 15 92 21 29 7 51 15 49 18 -2 4 15 8 38 9 44 1 286 73 350 104 22
10 45 19 50 19 23 0 156 71 151 80 -3 6 1 7 10 4 10 -4 33 6 60 25 24 17 46
31 50 31 14 0 36 31 29 41 -4 7 -3 9 4 6 16 -10 44 4 38 19 -3 7 0 11 7 8 7
-2 23 6 36 20 20 21 21 27 10 48 -11 21 -11 22 4 9 15 -12 17 -11 17 3 0 18
15 22 25 6 12 -20 64 -11 80 14 15 22 15 33 0 118 -64 373 -219 666 -468 887
-94 83 -83 76 -313 189 -230 113 -356 164 -557 226 -186 58 -266 71 -587 97
-294 23 -593 22 -706 -4 l-62 -14 -6 36 c-24 147 19 432 67 445 7 2 66 16 132
31 130 30 319 93 430 145 95 43 248 147 317 214 115 112 210 257 283 435 29
70 42 90 54 87 116 -34 139 -38 205 -34 102 5 187 47 277 137 109 109 146 217
137 399 -6 113 -29 174 -91 233 -81 80 -234 90 -377 26 -11 -5 -12 18 -5 146
l7 133 112 0 c61 0 131 6 155 13 112 32 209 101 249 175 24 47 22 142 -5 193
l-23 43 33 14 c37 16 123 87 161 133 61 73 73 161 32 241 -31 60 -75 101 -153
144 l-63 34 34 33 c89 87 116 229 64 342 -50 110 -200 224 -319 244 -35 6 -39
9 -33 28 23 71 -12 177 -81 249 -173 182 -431 269 -703 240 l-105 -12 -32 38
c-135 157 -552 143 -799 -27 -24 -17 -49 -31 -53 -31 -16 0 -53 90 -53 129 0
33 -6 44 -37 69 -107 84 -249 110 -448 81z m445 -1489 c31 -34 138 -109 185
-130 89 -41 160 -52 312 -49 l136 3 34 -51 c82 -124 342 -280 638 -383 137
-48 154 -56 193 -98 35 -37 42 -51 38 -71 -4 -14 -13 -102 -21 -196 -8 -93
-20 -210 -26 -260 -11 -87 -11 -89 11 -107 12 -10 29 -18 37 -18 23 0 53 19
53 34 0 20 77 75 120 86 39 10 87 14 139 11 46 -2 104 -62 120 -124 17 -70 14
-177 -9 -248 -31 -100 -99 -175 -205 -225 -66 -32 -113 -30 -251 7 -105 28
-117 29 -138 15 -18 -11 -24 -26 -28 -68 -3 -37 -20 -86 -56 -162 -168 -351
-382 -512 -861 -647 -58 -16 -124 -29 -148 -29 -79 0 -129 -55 -163 -179 -30
-106 -40 -231 -33 -394 6 -142 7 -149 31 -168 32 -25 41 -24 72 6 36 34 149
55 301 55 96 0 119 -3 119 -14 0 -24 -111 -129 -160 -153 -190 -91 -353 -128
-560 -126 -197 1 -337 39 -419 112 -19 17 -37 31 -41 31 -3 0 -30 24 -60 53
-29 28 -56 51 -59 50 -3 -1 -6 10 -6 23 0 34 22 38 185 31 97 -4 153 -11 191
-25 81 -28 119 -6 119 70 0 18 9 78 19 133 63 334 62 418 -10 501 -21 25 -39
49 -39 55 0 5 -12 9 -26 9 -74 0 -427 96 -599 163 -228 88 -440 228 -562 370
-94 110 -176 311 -209 512 -25 153 -52 177 -125 110 -21 -19 -50 -37 -64 -41
-58 -14 -185 61 -220 131 -20 41 -33 169 -20 202 6 17 7 17 16 1 5 -10 25 -20
43 -23 32 -7 34 -10 46 -68 33 -175 69 -228 122 -180 23 21 23 27 -8 151 l-26
105 27 22 c23 17 27 27 21 48 -9 36 -41 42 -132 27 -41 -7 -78 -10 -81 -6 -4
4 5 32 21 62 33 62 72 89 116 79 46 -10 114 -59 135 -98 23 -43 65 -65 98 -50
19 9 24 23 34 109 12 93 59 307 82 366 9 24 16 27 78 33 94 9 365 53 438 71
104 26 286 85 401 129 172 66 227 107 270 199 19 41 31 53 71 70 97 43 138 70
192 125 53 54 57 56 76 41 11 -8 22 -17 25 -20z m-1003 -3436 c-3 -3 -12 -4
-19 -1 -8 3 -5 6 6 6 11 1 17 -2 13 -5z m1653 -4 c0 -5 -2 -10 -4 -10 -3 0 -8
5 -11 10 -3 6 -1 10 4 10 6 0 11 -4 11 -10z m-1523 -6 c-3 -3 -12 -4 -19 -1
-8 3 -5 6 6 6 11 1 17 -2 13 -5z m1956 -11 c-7 -2 -19 -2 -25 0 -7 3 -2 5 12
5 14 0 19 -2 13 -5z m-2606 -119 c-3 -3 -12 -4 -19 -1 -8 3 -5 6 6 6 11 1 17
-2 13 -5z m-167 -68 c0 -3 -4 -8 -10 -11 -5 -3 -10 -1 -10 4 0 6 5 11 10 11 6
0 10 -2 10 -4z m-3 -42 c-3 -3 -12 -4 -19 -1 -8 3 -5 6 6 6 11 1 17 -2 13 -5z
m3758 -54 c3 -6 -1 -7 -9 -4 -18 7 -21 14 -7 14 6 0 13 -4 16 -10z m-4000 -30
c-3 -5 -12 -10 -18 -10 -7 0 -6 4 3 10 19 12 23 12 15 0z m4295 -145 c13 -14
21 -25 18 -25 -2 0 -15 11 -28 25 -13 14 -21 25 -18 25 2 0 15 -11 28 -25z
m-4627 -160 c-3 -9 -8 -14 -10 -11 -3 3 -2 9 2 15 9 16 15 13 8 -4z m4025
-215 c36 -22 62 -72 62 -120 0 -19 10 -41 25 -58 55 -59 59 -176 8 -229 -19
-21 -64 -36 -132 -43 -76 -9 -128 7 -136 43 -15 69 -35 193 -35 220 0 52 -10
24 -26 -74 -8 -52 -25 -114 -37 -139 -19 -39 -27 -45 -57 -48 -26 -2 -42 4
-62 23 -16 14 -29 31 -29 38 -1 7 -5 -15 -9 -48 -6 -45 -13 -63 -30 -74 -47
-32 -87 -12 -92 44 -6 62 14 260 29 283 35 55 80 43 129 -34 27 -43 29 -44 35
-22 4 13 7 40 8 60 1 54 19 86 50 90 36 4 71 -13 72 -37 1 -11 6 2 11 30 5 27
17 58 26 69 42 47 134 60 190 26z m919 -162 c-3 -8 -6 -5 -6 6 -1 11 2 17 5
13 3 -3 4 -12 1 -19z m-5190 -80 c-3 -8 -6 -5 -6 6 -1 11 2 17 5 13 3 -3 4
-12 1 -19z m-142 -348 c3 -5 1 -10 -4 -10 -6 0 -11 5 -11 10 0 6 2 10 4 10 3
0 8 -4 11 -10z m332 -136 c-3 -3 -12 -4 -19 -1 -8 3 -5 6 6 6 11 1 17 -2 13
-5z m200 -70 c-3 -3 -12 -4 -19 -1 -8 3 -5 6 6 6 11 1 17 -2 13 -5z"/>
<path d="M4314 6611 c-87 -53 -109 -149 -38 -167 26 -7 64 18 64 41 0 7 6 18
14 24 11 9 18 6 35 -17 11 -16 29 -32 40 -35 27 -7 61 19 61 47 0 24 -41 92
-69 113 -24 18 -72 16 -107 -6z"/>
<path d="M5770 6477 c-58 -30 -78 -68 -56 -103 21 -30 61 -32 93 -2 21 20 24
20 41 5 26 -24 59 -21 76 6 31 48 -14 117 -78 117 -17 0 -51 -11 -76 -23z"/>
<path d="M4361 6101 c-28 -28 -27 -63 5 -100 31 -37 70 -41 102 -11 28 26 29
80 3 104 -31 28 -85 32 -110 7z"/>
<path d="M5840 6059 c-13 -6 -28 -15 -32 -22 -14 -22 -8 -67 12 -87 43 -43
120 -7 120 55 0 53 -43 76 -100 54z"/>
<path d="M6838 5900 c-11 -7 -18 -23 -18 -41 0 -26 6 -33 40 -46 34 -14 39
-20 34 -37 -13 -44 -57 -136 -70 -147 -32 -27 -2 -89 43 -89 11 0 27 8 36 18
22 25 73 130 86 180 13 45 17 48 54 31 55 -25 99 41 58 85 -32 34 -227 68
-263 46z"/>
<path d="M6226 5743 c-13 -13 -5 -29 26 -46 31 -18 58 -11 43 12 -9 16 -61 41
-69 34z"/>
<path d="M5117 5698 c-21 -35 -50 -193 -44 -239 6 -49 28 -74 74 -90 42 -14
79 -5 93 21 16 30 4 54 -35 73 -29 14 -34 21 -30 39 3 13 12 57 20 98 12 65
12 78 -1 98 -8 13 -25 22 -39 22 -15 0 -30 -9 -38 -22z"/>
<path d="M5937 5713 c-4 -3 -7 -28 -7 -55 0 -41 3 -48 20 -48 18 0 20 7 20 55
0 39 -4 55 -13 55 -8 0 -17 -3 -20 -7z"/>
<path d="M6034 5706 c-6 -16 23 -62 44 -70 23 -10 24 22 1 53 -25 34 -37 38
-45 17z"/>
<path d="M4335 5680 c-7 -12 60 -100 76 -100 19 0 8 37 -22 73 -32 38 -43 44
-54 27z"/>
<path d="M4185 5633 c3 -16 15 -37 25 -47 17 -17 20 -18 25 -4 9 22 -22 78
-41 78 -13 0 -15 -6 -9 -27z"/>
<path d="M4046 5633 c-3 -10 -8 -39 -12 -65 -5 -40 -4 -48 9 -48 22 0 26 9 33
74 6 47 4 56 -9 56 -9 0 -18 -8 -21 -17z"/>
<path d="M5232 5068 c-54 -69 -72 -81 -109 -75 -20 4 -48 18 -63 32 -33 31
-65 32 -85 1 -31 -46 18 -104 112 -132 49 -15 78 -11 136 18 69 35 119 132 85
166 -19 19 -57 14 -76 -10z"/>
<path d="M6936 2904 c-9 -24 0 -29 18 -11 8 8 12 17 9 21 -11 10 -21 7 -27
-10z"/>
<path d="M6988 2753 c-27 -7 -20 -53 9 -53 12 0 24 4 27 8 6 11 -4 52 -13 51
-3 -1 -14 -3 -23 -6z"/>
<path d="M8215 1891 c-22 -10 -46 -25 -54 -34 -7 -10 -19 -17 -26 -17 -24 0
-37 -47 -33 -120 3 -65 7 -75 33 -97 23 -21 36 -24 71 -20 23 2 57 16 75 29
34 25 34 25 64 7 39 -24 55 -24 55 1 0 12 -12 26 -31 35 -27 15 -30 20 -23 48
3 17 6 56 6 87 0 46 -4 58 -27 77 -31 28 -57 29 -110 4z m89 -47 c9 -24 7 -69
-4 -99 -8 -22 -13 -24 -29 -15 -47 25 -72 -3 -28 -33 20 -14 20 -17 7 -30 -27
-28 -66 -31 -89 -8 -33 33 -29 109 7 143 55 53 124 74 136 42z"/>
<path d="M7854 1805 c-17 -8 -35 -20 -40 -27 -32 -42 -46 -209 -21 -258 33
-65 112 -65 174 1 32 33 43 39 73 37 40 -3 50 20 15 36 -18 8 -20 16 -16 87 3
76 2 79 -27 109 -26 25 -38 30 -79 29 -26 0 -62 -7 -79 -14z m113 -40 c25 -17
39 -71 29 -111 -6 -24 -10 -26 -46 -20 -23 4 -41 2 -45 -4 -9 -15 14 -40 36
-40 26 0 24 -12 -9 -43 -38 -37 -89 -37 -102 -1 -13 34 -12 121 3 164 8 24 23
41 47 52 43 22 59 22 87 3z"/>
<path d="M7245 1740 c-6 -9 -1 -126 11 -288 5 -67 8 -73 34 -87 41 -21 73 -19
99 9 32 34 37 84 12 124 -18 27 -27 32 -60 32 -45 0 -51 9 -51 79 0 79 -11
141 -26 141 -7 0 -16 -4 -19 -10z m113 -262 c28 -28 0 -94 -33 -82 -27 11 -14
94 15 94 3 0 11 -5 18 -12z"/>
<path d="M7520 1538 l0 -62 -33 32 c-33 32 -67 42 -67 20 0 -7 21 -34 47 -60
l47 -47 -11 -83 c-12 -83 -7 -105 20 -95 18 7 26 58 34 225 6 130 6 132 -16
132 -19 0 -21 -5 -21 -62z"/>
<path d="M6898 1432 c-121 -28 -151 -43 -130 -64 9 -9 43 -4 144 18 116 26
133 32 133 49 0 27 -14 27 -147 -3z"/>
</g>
</svg>
